# xmcd
#
# Track frame offsets:
#	150
#	19262
#	33225
#	54110
#	66630
#	80862
#	94677
#	117537
#	142015
#	157885
#
# Disc length: 2288 seconds
#
# Revision: 3
# Processed by: cddbd v1.5.1PL2 Copyright (c) Steve Scherf et al.
# Submitted via: dBpowerAMP V4.0
#
DISCID=8708ee0a
DTITLE=Various Artist - Chicago Blues Masters
DYEAR=1994
DGENRE=Blues
TTITLE0=Magic Sam - Sweet Home Chicago
TTITLE1=Carey Bell - I'm Ready
TTITLE2=Junior Wells - Key To The Highway
TTITLE3=Arthur Crudup - That's All Right
TTITLE4=Big Walter Horton - Back Home To Mama
TTITLE5=Magic Sam - I Just Want A Little Bit
TTITLE6=Carey Bell - Black Eyed Peas
TTITLE7=Junior Wells - You Gotta Love Her With A Feeling
TTITLE8=Arthur Crudup - Look On Yonders Wall
TTITLE9=Big Walter Horton - Hard Hearted Woman
EXTD=
EXTT0=
EXTT1=
EXTT2=
EXTT3=
EXTT4=
EXTT5=
EXTT6=
EXTT7=
EXTT8=
EXTT9=
PLAYORDER=
